<?xml version="1.0" encoding="UTF-8"?>
<!--Generator: Apple Native CoreSVG 175-->
<!DOCTYPE svg
PUBLIC "-//W3C//DTD SVG 1.1//EN"
       "http://www.w3.org/Graphics/SVG/1.1/DTD/svg11.dtd">
<svg version="1.1" xmlns="http://www.w3.org/2000/svg" xmlns:xlink="http://www.w3.org/1999/xlink" width="3300" height="2200">
 <!--glyph: "uni100EEC.medium", point size: 100.0, font version: "17.1d1e1", template writer version: "65.1"-->
 <g id="Notes">
  <rect height="2200" id="artboard" style="fill:white;opacity:1" width="3300" x="0" y="0"/>
  <line style="fill:none;stroke:black;opacity:1;stroke-width:0.5;" x1="263" x2="3036" y1="292" y2="292"/>
  <text style="stroke:none;fill:black;font-family:sans-serif;font-size:13;font-weight:bold;" transform="matrix(1 0 0 1 263 322)">Weight/Scale Variations</text>
  <text style="stroke:none;fill:black;font-family:sans-serif;font-size:13;text-anchor:middle;" transform="matrix(1 0 0 1 559.711 322)">Ultralight</text>
  <text style="stroke:none;fill:black;font-family:sans-serif;font-size:13;text-anchor:middle;" transform="matrix(1 0 0 1 856.422 322)">Thin</text>
  <text style="stroke:none;fill:black;font-family:sans-serif;font-size:13;text-anchor:middle;" transform="matrix(1 0 0 1 1153.13 322)">Light</text>
  <text style="stroke:none;fill:black;font-family:sans-serif;font-size:13;text-anchor:middle;" transform="matrix(1 0 0 1 1449.84 322)">Regular</text>
  <text style="stroke:none;fill:black;font-family:sans-serif;font-size:13;text-anchor:middle;" transform="matrix(1 0 0 1 1746.56 322)">Medium</text>
  <text style="stroke:none;fill:black;font-family:sans-serif;font-size:13;text-anchor:middle;" transform="matrix(1 0 0 1 2043.27 322)">Semibold</text>
  <text style="stroke:none;fill:black;font-family:sans-serif;font-size:13;text-anchor:middle;" transform="matrix(1 0 0 1 2339.98 322)">Bold</text>
  <text style="stroke:none;fill:black;font-family:sans-serif;font-size:13;text-anchor:middle;" transform="matrix(1 0 0 1 2636.69 322)">Heavy</text>
  <text style="stroke:none;fill:black;font-family:sans-serif;font-size:13;text-anchor:middle;" transform="matrix(1 0 0 1 2933.4 322)">Black</text>
  <line style="fill:none;stroke:black;opacity:1;stroke-width:0.5;" x1="263" x2="3036" y1="1903" y2="1903"/>
  <g transform="matrix(1 0 0 1 263 1933)">
   <path d="M9.24805 0.830078Q10.8691 0.830078 12.2949 0.214844Q13.7207-0.400391 14.8096-1.49414Q15.8984-2.58789 16.5186-4.01367Q17.1387-5.43945 17.1387-7.05078Q17.1387-8.66211 16.5186-10.0879Q15.8984-11.5137 14.8047-12.6074Q13.7109-13.7012 12.2852-14.3164Q10.8594-14.9316 9.23828-14.9316Q7.62695-14.9316 6.20117-14.3164Q4.77539-13.7012 3.69141-12.6074Q2.60742-11.5137 1.9873-10.0879Q1.36719-8.66211 1.36719-7.05078Q1.36719-5.43945 1.9873-4.01367Q2.60742-2.58789 3.69629-1.49414Q4.78516-0.400391 6.21094 0.214844Q7.63672 0.830078 9.24805 0.830078ZM9.24805-0.654297Q7.91992-0.654297 6.7627-1.14746Q5.60547-1.64062 4.73145-2.51953Q3.85742-3.39844 3.36426-4.56055Q2.87109-5.72266 2.87109-7.05078Q2.87109-8.37891 3.35938-9.54102Q3.84766-10.7031 4.72168-11.582Q5.5957-12.4609 6.75293-12.9541Q7.91016-13.4473 9.23828-13.4473Q10.5762-13.4473 11.7334-12.9541Q12.8906-12.4609 13.7695-11.582Q14.6484-10.7031 15.1465-9.54102Q15.6445-8.37891 15.6445-7.05078Q15.6445-5.72266 15.1514-4.56055Q14.6582-3.39844 13.7842-2.51953Q12.9102-1.64062 11.748-1.14746Q10.5859-0.654297 9.24805-0.654297ZM5.6543-7.05078Q5.6543-6.72852 5.85938-6.52832Q6.06445-6.32812 6.40625-6.32812L8.51562-6.32812L8.51562-4.20898Q8.51562-3.88672 8.71094-3.67676Q8.90625-3.4668 9.23828-3.4668Q9.56055-3.4668 9.77051-3.67676Q9.98047-3.88672 9.98047-4.20898L9.98047-6.32812L12.0898-6.32812Q12.4219-6.32812 12.627-6.52832Q12.832-6.72852 12.832-7.05078Q12.832-7.38281 12.627-7.58789Q12.4219-7.79297 12.0898-7.79297L9.98047-7.79297L9.98047-9.90234Q9.98047-10.2344 9.77051-10.4443Q9.56055-10.6543 9.23828-10.6543Q8.90625-10.6543 8.71094-10.4443Q8.51562-10.2344 8.51562-9.90234L8.51562-7.79297L6.40625-7.79297Q6.06445-7.79297 5.85938-7.58789Q5.6543-7.38281 5.6543-7.05078Z"/>
  </g>
  <g transform="matrix(1 0 0 1 281.867 1933)">
   <path d="M11.709 2.91016Q13.75 2.91016 15.5518 2.12891Q17.3535 1.34766 18.7305-0.0292969Q20.1074-1.40625 20.8887-3.20801Q21.6699-5.00977 21.6699-7.05078Q21.6699-9.0918 20.8887-10.8936Q20.1074-12.6953 18.7305-14.0723Q17.3535-15.4492 15.5469-16.2305Q13.7402-17.0117 11.6992-17.0117Q9.6582-17.0117 7.85645-16.2305Q6.05469-15.4492 4.68262-14.0723Q3.31055-12.6953 2.5293-10.8936Q1.74805-9.0918 1.74805-7.05078Q1.74805-5.00977 2.5293-3.20801Q3.31055-1.40625 4.6875-0.0292969Q6.06445 1.34766 7.86621 2.12891Q9.66797 2.91016 11.709 2.91016ZM11.709 1.25Q9.98047 1.25 8.47656 0.605469Q6.97266-0.0390625 5.83496-1.17676Q4.69727-2.31445 4.05762-3.81836Q3.41797-5.32227 3.41797-7.05078Q3.41797-8.7793 4.05762-10.2832Q4.69727-11.7871 5.83008-12.9297Q6.96289-14.0723 8.4668-14.7119Q9.9707-15.3516 11.6992-15.3516Q13.4277-15.3516 14.9316-14.7119Q16.4355-14.0723 17.5781-12.9297Q18.7207-11.7871 19.3652-10.2832Q20.0098-8.7793 20.0098-7.05078Q20.0098-5.32227 19.3701-3.81836Q18.7305-2.31445 17.5928-1.17676Q16.4551-0.0390625 14.9463 0.605469Q13.4375 1.25 11.709 1.25ZM7.17773-7.05078Q7.17773-6.69922 7.41211-6.47461Q7.64648-6.25 8.01758-6.25L10.8887-6.25L10.8887-3.36914Q10.8887-2.99805 11.1133-2.76855Q11.3379-2.53906 11.6895-2.53906Q12.0605-2.53906 12.29-2.76855Q12.5195-2.99805 12.5195-3.36914L12.5195-6.25L15.4004-6.25Q15.7715-6.25 16.001-6.47461Q16.2305-6.69922 16.2305-7.05078Q16.2305-7.42188 16.001-7.65137Q15.7715-7.88086 15.4004-7.88086L12.5195-7.88086L12.5195-10.752Q12.5195-11.1328 12.29-11.3623Q12.0605-11.5918 11.6895-11.5918Q11.3379-11.5918 11.1133-11.3574Q10.8887-11.123 10.8887-10.752L10.8887-7.88086L8.01758-7.88086Q7.63672-7.88086 7.40723-7.65137Q7.17773-7.42188 7.17773-7.05078Z"/>
  </g>
  <g transform="matrix(1 0 0 1 305.646 1933)">
   <path d="M14.9707 5.66406Q17.0605 5.66406 18.96 5.01465Q20.8594 4.36523 22.4512 3.19336Q24.043 2.02148 25.2197 0.429688Q26.3965-1.16211 27.0459-3.06641Q27.6953-4.9707 27.6953-7.05078Q27.6953-9.14062 27.0459-11.04Q26.3965-12.9395 25.2197-14.5312Q24.043-16.123 22.4512-17.2998Q20.8594-18.4766 18.9551-19.126Q17.0508-19.7754 14.9609-19.7754Q12.8711-19.7754 10.9717-19.126Q9.07227-18.4766 7.48535-17.2998Q5.89844-16.123 4.72168-14.5312Q3.54492-12.9395 2.90039-11.04Q2.25586-9.14062 2.25586-7.05078Q2.25586-4.9707 2.90527-3.06641Q3.55469-1.16211 4.72656 0.429688Q5.89844 2.02148 7.49023 3.19336Q9.08203 4.36523 10.9814 5.01465Q12.8809 5.66406 14.9707 5.66406ZM14.9707 3.84766Q13.1641 3.84766 11.5283 3.2959Q9.89258 2.74414 8.53516 1.74805Q7.17773 0.751953 6.17676-0.610352Q5.17578-1.97266 4.62891-3.6084Q4.08203-5.24414 4.08203-7.05078Q4.08203-8.86719 4.62891-10.5029Q5.17578-12.1387 6.17188-13.501Q7.16797-14.8633 8.52539-15.8594Q9.88281-16.8555 11.5186-17.4023Q13.1543-17.9492 14.9609-17.9492Q16.7773-17.9492 18.4131-17.4023Q20.0488-16.8555 21.4111-15.8594Q22.7734-14.8633 23.7695-13.501Q24.7656-12.1387 25.3174-10.5029Q25.8691-8.86719 25.8691-7.05078Q25.8789-5.24414 25.332-3.6084Q24.7852-1.97266 23.7842-0.610352Q22.7832 0.751953 21.4209 1.74805Q20.0586 2.74414 18.4229 3.2959Q16.7871 3.84766 14.9707 3.84766ZM9.19922-7.05078Q9.19922-6.66992 9.45801-6.4209Q9.7168-6.17188 10.1172-6.17188L14.0625-6.17188L14.0625-2.2168Q14.0625-1.81641 14.3115-1.55762Q14.5605-1.29883 14.9512-1.29883Q15.3516-1.29883 15.6104-1.55273Q15.8691-1.80664 15.8691-2.2168L15.8691-6.17188L19.8242-6.17188Q20.2246-6.17188 20.4785-6.4209Q20.7324-6.66992 20.7324-7.05078Q20.7324-7.46094 20.4785-7.71484Q20.2246-7.96875 19.8242-7.96875L15.8691-7.96875L15.8691-11.9141Q15.8691-12.3242 15.6104-12.583Q15.3516-12.8418 14.9512-12.8418Q14.5605-12.8418 14.3115-12.583Q14.0625-12.3242 14.0625-11.9141L14.0625-7.96875L10.1172-7.96875Q9.70703-7.96875 9.45312-7.71484Q9.19922-7.46094 9.19922-7.05078Z"/>
  </g>
  <text style="stroke:none;fill:black;font-family:sans-serif;font-size:13;font-weight:bold;" transform="matrix(1 0 0 1 263 1953)">Design Variations</text>
  <text style="stroke:none;fill:black;font-family:sans-serif;font-size:13;" transform="matrix(1 0 0 1 263 1971)">Symbols are supported in up to nine weights and three scales.</text>
  <text style="stroke:none;fill:black;font-family:sans-serif;font-size:13;" transform="matrix(1 0 0 1 263 1989)">For optimal layout with text and other symbols, vertically align</text>
  <text style="stroke:none;fill:black;font-family:sans-serif;font-size:13;" transform="matrix(1 0 0 1 263 2007)">symbols with the adjacent text.</text>
  <line style="fill:none;stroke:#00AEEF;stroke-width:0.5;opacity:1.0;" x1="776" x2="776" y1="1919" y2="1933"/>
  <g transform="matrix(1 0 0 1 776 1933)">
   <path d="M3.31055 0.15625Q3.70117 0.15625 3.91602-0.00976562Q4.13086-0.175781 4.26758-0.585938L5.52734-4.0332L11.2891-4.0332L12.5488-0.585938Q12.6855-0.175781 12.9004-0.00976562Q13.1152 0.15625 13.4961 0.15625Q13.8867 0.15625 14.1162-0.0585938Q14.3457-0.273438 14.3457-0.644531Q14.3457-0.869141 14.2383-1.17188L9.6582-13.3691Q9.48242-13.8184 9.17969-14.043Q8.87695-14.2676 8.4082-14.2676Q7.5-14.2676 7.17773-13.3789L2.59766-1.16211Q2.49023-0.859375 2.49023-0.634766Q2.49023-0.263672 2.70996-0.0537109Q2.92969 0.15625 3.31055 0.15625ZM6.00586-5.51758L8.37891-12.0898L8.42773-12.0898L10.8008-5.51758Z"/>
  </g>
  <line style="fill:none;stroke:#00AEEF;stroke-width:0.5;opacity:1.0;" x1="793.197" x2="793.197" y1="1919" y2="1933"/>
  <text style="stroke:none;fill:black;font-family:sans-serif;font-size:13;font-weight:bold;" transform="matrix(1 0 0 1 776 1953)">Margins</text>
  <text style="stroke:none;fill:black;font-family:sans-serif;font-size:13;" transform="matrix(1 0 0 1 776 1971)">Leading and trailing margins on the left and right side of each symbol</text>
  <text style="stroke:none;fill:black;font-family:sans-serif;font-size:13;" transform="matrix(1 0 0 1 776 1989)">can be adjusted by modifying the x-location of the margin guidelines.</text>
  <text style="stroke:none;fill:black;font-family:sans-serif;font-size:13;" transform="matrix(1 0 0 1 776 2007)">Modifications are automatically applied proportionally to all</text>
  <text style="stroke:none;fill:black;font-family:sans-serif;font-size:13;" transform="matrix(1 0 0 1 776 2025)">scales and weights.</text>
  <g transform="matrix(1 0 0 1 1289 1933)">
   <path d="M2.8418 1.86523L4.54102 3.57422Q5.18555 4.22852 5.90332 4.17969Q6.62109 4.13086 7.31445 3.35938L18.0078-8.42773L17.041-9.4043L6.42578 2.27539Q6.16211 2.57812 5.89355 2.61719Q5.625 2.65625 5.27344 2.30469L4.10156 1.14258Q3.75 0.791016 3.79395 0.522461Q3.83789 0.253906 4.14062-0.0195312L15.6152-10.8203L14.6387-11.7871L3.04688-0.898438Q2.30469-0.214844 2.25098 0.498047Q2.19727 1.21094 2.8418 1.86523ZM9.25781-16.3281Q8.94531-16.0254 8.90625-15.6348Q8.86719-15.2441 9.04297-14.9512Q9.21875-14.6777 9.55566-14.541Q9.89258-14.4043 10.3809-14.5215Q11.4746-14.7754 12.5977-14.7314Q13.7207-14.6875 14.7949-13.9844L14.209-12.5293Q13.9551-11.9043 14.0674-11.4404Q14.1797-10.9766 14.5801-10.5664L16.875-8.25195Q17.2363-7.88086 17.5781-7.82227Q17.9199-7.76367 18.3398-7.8418L19.4043-8.03711L20.0684-7.36328L20.0293-6.80664Q20-6.43555 20.1221-6.12305Q20.2441-5.81055 20.6055-5.44922L21.3672-4.70703Q21.7285-4.3457 22.1533-4.33105Q22.5781-4.31641 22.9297-4.66797L25.8398-7.58789Q26.1914-7.93945 26.1816-8.35449Q26.1719-8.76953 25.8105-9.13086L25.0391-9.89258Q24.6875-10.2539 24.3799-10.3857Q24.0723-10.5176 23.7109-10.4883L23.1348-10.4395L22.4902-11.0742L22.7344-12.1973Q22.832-12.6172 22.6953-12.9834Q22.5586-13.3496 22.1191-13.7891L19.9219-15.9766Q18.6719-17.2168 17.2607-17.8369Q15.8496-18.457 14.4189-18.4814Q12.9883-18.5059 11.665-17.959Q10.3418-17.4121 9.25781-16.3281ZM10.752-15.957Q11.6602-16.6211 12.7002-16.9043Q13.7402-17.1875 14.8047-17.085Q15.8691-16.9824 16.8701-16.5137Q17.8711-16.0449 18.7012-15.2051L21.1328-12.793Q21.3086-12.6172 21.3525-12.4512Q21.3965-12.2852 21.3379-12.0312L21.0156-10.5469L22.5195-9.0625L23.5059-9.12109Q23.6914-9.13086 23.7891-9.09668Q23.8867-9.0625 24.0332-8.91602L24.6094-8.33984L22.168-5.89844L21.5918-6.47461Q21.4453-6.62109 21.4062-6.71875Q21.3672-6.81641 21.377-7.01172L21.4453-7.98828L19.9512-9.47266L18.4277-9.21875Q18.1836-9.16992 18.042-9.2041Q17.9004-9.23828 17.7148-9.41406L15.7129-11.416Q15.5176-11.5918 15.4932-11.7529Q15.4688-11.9141 15.5859-12.1875L16.4648-14.2773Q15.293-15.3711 13.8281-15.791Q12.3633-16.2109 10.8398-15.7617Q10.7227-15.7324 10.6885-15.8057Q10.6543-15.8789 10.752-15.957Z"/>
  </g>
  <text style="stroke:none;fill:black;font-family:sans-serif;font-size:13;font-weight:bold;" transform="matrix(1 0 0 1 1289 1953)">Exporting</text>
  <text style="stroke:none;fill:black;font-family:sans-serif;font-size:13;" transform="matrix(1 0 0 1 1289 1971)">Symbols should be outlined when exporting to ensure the</text>
  <text style="stroke:none;fill:black;font-family:sans-serif;font-size:13;" transform="matrix(1 0 0 1 1289 1989)">design is preserved when submitting to Xcode.</text>
  <text id="template-version" style="stroke:none;fill:black;font-family:sans-serif;font-size:13;text-anchor:end;" transform="matrix(1 0 0 1 3036 1933)">Template v.3.0</text>
  <text style="stroke:none;fill:black;font-family:sans-serif;font-size:13;text-anchor:end;" transform="matrix(1 0 0 1 3036 1951)">Requires Xcode 13 or greater</text>
  <text id="descriptive-name" style="stroke:none;fill:black;font-family:sans-serif;font-size:13;text-anchor:end;" transform="matrix(1 0 0 1 3036 1969)">Generated from map.circle.fill</text>
  <text style="stroke:none;fill:black;font-family:sans-serif;font-size:13;text-anchor:end;" transform="matrix(1 0 0 1 3036 1987)">Typeset at 100 points</text>
  <text style="stroke:none;fill:black;font-family:sans-serif;font-size:13;" transform="matrix(1 0 0 1 263 726)">Small</text>
  <text style="stroke:none;fill:black;font-family:sans-serif;font-size:13;" transform="matrix(1 0 0 1 263 1156)">Medium</text>
  <text style="stroke:none;fill:black;font-family:sans-serif;font-size:13;" transform="matrix(1 0 0 1 263 1586)">Large</text>
 </g>
 <g id="Guides">
  <g id="H-reference" style="fill:#27AAE1;stroke:none;" transform="matrix(1 0 0 1 339 696)">
   <path d="M0.993347 0L3.6377 0L29.3282-67.1326L30.0301-67.1326L30.0301-70.459L28.1227-70.459ZM11.6882-24.4797L46.9818-24.4797L46.2311-26.7288L12.4382-26.7288ZM55.1193 0L57.7637 0L30.6381-70.459L29.4327-70.459L29.4327-67.1326Z"/>
  </g>
  <line id="Baseline-S" style="fill:none;stroke:#27AAE1;opacity:1;stroke-width:0.5;" x1="263" x2="3036" y1="696" y2="696"/>
  <line id="Capline-S" style="fill:none;stroke:#27AAE1;opacity:1;stroke-width:0.5;" x1="263" x2="3036" y1="625.541" y2="625.541"/>
  <g id="H-reference" style="fill:#27AAE1;stroke:none;" transform="matrix(1 0 0 1 339 1126)">
   <path d="M0.993347 0L3.6377 0L29.3282-67.1326L30.0301-67.1326L30.0301-70.459L28.1227-70.459ZM11.6882-24.4797L46.9818-24.4797L46.2311-26.7288L12.4382-26.7288ZM55.1193 0L57.7637 0L30.6381-70.459L29.4327-70.459L29.4327-67.1326Z"/>
  </g>
  <line id="Baseline-M" style="fill:none;stroke:#27AAE1;opacity:1;stroke-width:0.5;" x1="263" x2="3036" y1="1126" y2="1126"/>
  <line id="Capline-M" style="fill:none;stroke:#27AAE1;opacity:1;stroke-width:0.5;" x1="263" x2="3036" y1="1055.54" y2="1055.54"/>
  <g id="H-reference" style="fill:#27AAE1;stroke:none;" transform="matrix(1 0 0 1 339 1556)">
   <path d="M0.993347 0L3.6377 0L29.3282-67.1326L30.0301-67.1326L30.0301-70.459L28.1227-70.459ZM11.6882-24.4797L46.9818-24.4797L46.2311-26.7288L12.4382-26.7288ZM55.1193 0L57.7637 0L30.6381-70.459L29.4327-70.459L29.4327-67.1326Z"/>
  </g>
  <line id="Baseline-L" style="fill:none;stroke:#27AAE1;opacity:1;stroke-width:0.5;" x1="263" x2="3036" y1="1556" y2="1556"/>
  <line id="Capline-L" style="fill:none;stroke:#27AAE1;opacity:1;stroke-width:0.5;" x1="263" x2="3036" y1="1485.54" y2="1485.54"/>
  <line id="left-margin-Regular-M" style="fill:none;stroke:#00AEEF;stroke-width:0.5;opacity:1.0;" x1="1391.32" x2="1391.32" y1="1030.79" y2="1150.12"/>
  <line id="right-margin-Regular-M" style="fill:none;stroke:#00AEEF;stroke-width:0.5;opacity:1.0;" x1="1508.37" x2="1508.37" y1="1030.79" y2="1150.12"/>
 </g>
 <g id="Symbols">
  <g id="Black-L" transform="matrix(1 0 0 1 2854.19 1556)">
   <path d="M79.1953 32.7252Q93.2356 32.7252 105.521 27.4303Q117.806 22.1354 127.174 12.7571Q136.542 3.37874 141.848-8.90649Q147.154-21.1917 147.154-35.2113Q147.154-49.2309 141.848-61.5161Q136.542-73.8013 127.164-83.1796Q117.785-92.558 105.5-97.8529Q93.2149-103.148 79.1746-103.148Q65.1563-103.148 52.8704-97.8529Q40.5846-92.558 31.2276-83.1796Q21.8707-73.8013 16.5647-61.5161Q11.2588-49.2309 11.2588-35.2113Q11.2588-21.1917 16.5647-8.90649Q21.8707 3.37874 31.238 12.7571Q40.6053 22.1354 52.8912 27.4303Q65.177 32.7252 79.1953 32.7252ZM46.7035-11.0723L46.7035-50.8816Q46.7035-53.1104 47.6382-54.758Q48.5729-56.4056 50.5215-57.5394L62.1367-63.918Q63.3214-64.5694 64.2724-64.9567Q65.2235-65.344 65.9773-65.4866L65.9773-11.6819L55.9354-6.27707Q54.3089-5.29903 52.3159-5.29903Q50.0885-5.29903 48.396-6.68066Q46.7035-8.06229 46.7035-11.0723ZM71.2194-13.0741L71.2194-65.3591Q72.0743-65.1813 73.1617-64.5707Q74.2491-63.9602 75.6077-63.2504L87.0746-56.6414L87.0746-5.00891Q85.9352-5.14773 85.0366-5.50263Q84.1381-5.85753 83.0715-6.45052ZM92.3386-5.26583L92.3386-59.1836L101.086-63.9716Q103.151-65.1625 105.348-65.1625Q108.044-65.1625 109.882-63.7731Q111.72-62.3836 111.72-59.2555L111.72-20.3002Q111.72-15.8115 107.611-13.5269L93.8189-5.88598Q93.0599-5.40852 92.3386-5.26583Z"/>
  </g>
  <g id="Heavy-L" transform="matrix(1 0 0 1 2558.42 1556)">
   <path d="M78.2511 31.7672Q92.088 31.7672 104.202 26.5464Q116.316 21.3256 125.559 12.0677Q134.802 2.8099 140.04-9.30402Q145.279-21.4179 145.279-35.2251Q145.279-49.0322 140.04-61.1461Q134.802-73.2601 125.544-82.5179Q116.286-91.7758 104.172-96.9966Q92.0582-102.217 78.2213-102.217Q64.4202-102.217 52.3033-96.9966Q40.1863-91.7758 30.9613-82.5179Q21.7362-73.2601 16.4975-61.1461Q11.2588-49.0322 11.2588-35.2251Q11.2588-21.4179 16.4975-9.30402Q21.7362 2.8099 30.9761 12.0677Q40.2161 21.3256 52.333 26.5464Q64.45 31.7672 78.2511 31.7672ZM45.1446-10.1478L45.1446-51.3384Q45.1446-53.4284 46.0213-54.9643Q46.898-56.5002 48.7259-57.569L61.4133-64.6348Q62.4374-65.1944 63.2829-65.5472Q64.1284-65.9001 64.8043-66.0698L64.8043-11.7659L53.7088-5.78699Q52.0561-4.8284 50.3031-4.8284Q48.1926-4.8284 46.6686-6.12189Q45.1446-7.41537 45.1446-10.1478ZM69.8445-12.9676L69.8445-66.0787Q70.6305-65.9328 71.5757-65.4163Q72.521-64.8999 73.6728-64.2956L86.366-56.8373L86.366-4.37149Q85.4196-4.49653 84.6382-4.79867Q83.8568-5.10081 82.9281-5.61584ZM91.442-4.59181L91.442-58.9138L101.687-64.5353Q103.604-65.6427 105.583-65.6427Q108.057-65.6427 109.689-64.3596Q111.322-63.0766 111.322-60.2489L111.322-19.6919Q111.322-15.5006 107.523-13.3781L92.8271-5.16678Q92.1271-4.73496 91.442-4.59181Z"/>
  </g>
  <g id="Bold-L" transform="matrix(1 0 0 1 2262.89 1556)">
   <path d="M77.0653 30.566Q90.6516 30.566 102.549 25.4396Q114.447 20.3133 123.533 11.2089Q132.619 2.10448 137.771-9.79333Q142.923-21.6912 142.923-35.2405Q142.923-48.7898 137.771-60.6877Q132.619-72.5855 123.515-81.6899Q114.41-90.7942 102.512-95.9206Q90.6146-101.047 77.0283-101.047Q63.4932-101.047 51.5882-95.9206Q39.6833-90.7942 30.623-81.6899Q21.5627-72.5855 16.4108-60.6877Q11.2588-48.7898 11.2588-35.2405Q11.2588-21.6912 16.4108-9.79333Q21.5627 2.10448 30.6415 11.2089Q39.7203 20.3133 51.6252 25.4396Q63.5301 30.566 77.0653 30.566ZM43.3747-9.09643L43.3747-51.8838Q43.3747-53.8013 44.1765-55.1864Q44.9783-56.5716 46.6481-57.5531L60.5667-65.4366Q61.4139-65.8965 62.1443-66.2108Q62.8747-66.525 63.4662-66.7164L63.4662-11.9692L51.0798-5.26754Q49.4238-4.35087 47.9594-4.35087Q46.0171-4.35087 44.6959-5.52992Q43.3747-6.70897 43.3747-9.09643ZM68.1999-12.9174L68.1999-66.8521Q68.9089-66.736 69.7009-66.3235Q70.4929-65.9109 71.4134-65.4218L85.4698-57.0247L85.4698-3.68146Q84.7393-3.79109 84.089-4.03564Q83.4386-4.2802 82.6641-4.71091ZM90.2547-3.86372L90.2547-58.5485L102.246-65.1401Q103.974-66.1366 105.688-66.1366Q107.878-66.1366 109.265-64.987Q110.652-63.8375 110.652-61.3774L110.652-18.9768Q110.652-15.1816 107.247-13.2634L91.5594-4.40255Q90.911-4.01602 90.2547-3.86372Z"/>
  </g>
  <g id="Semibold-L" transform="matrix(1 0 0 1 1966.99 1556)">
   <path d="M76.2478 29.7379Q89.6614 29.7379 101.41 24.6766Q113.159 19.6153 122.137 10.6168Q131.114 1.61818 136.206-10.1307Q141.299-21.8795 141.299-35.2511Q141.299-48.6228 136.206-60.3716Q131.114-72.1204 122.116-81.119Q113.117-90.1176 101.368-95.1789Q89.6194-100.24 76.2058-100.24Q62.854-100.24 51.0953-95.1789Q39.3365-90.1176 30.3898-81.119Q21.4432-72.1204 16.351-60.3716Q11.2588-48.6228 11.2588-35.2511Q11.2588-21.8795 16.351-10.1307Q21.4432 1.61818 30.4108 10.6168Q39.3785 19.6153 51.1372 24.6766Q62.896 29.7379 76.2478 29.7379ZM42.1546-8.3716L42.1546-52.2598Q42.1546-54.0584 42.9047-55.3396Q43.6549-56.6207 45.2158-57.5421L59.9831-65.9893Q60.7083-66.3805 61.3593-66.6682Q62.0103-66.9559 62.5437-67.1622L62.5437-12.1093L49.2674-4.90944Q47.6091-4.02166 46.3437-4.02166Q44.5172-4.02166 43.3359-5.12182Q42.1546-6.22198 42.1546-8.3716ZM67.0662-12.8829L67.0662-67.3853Q67.722-67.2898 68.4084-66.9488Q69.0947-66.6078 69.8558-66.1981L84.852-57.1539L84.852-3.20577Q84.2703-3.30476 83.7103-3.50962Q83.1503-3.71448 82.4821-4.08705ZM89.4363-3.36178L89.4363-58.2967L102.632-65.557Q104.23-66.4771 105.76-66.4771Q107.755-66.4771 108.973-65.4195Q110.19-64.362 110.19-62.1554L110.19-18.4839Q110.19-14.9617 107.056-13.1843L90.6855-3.87569Q90.0726-3.52039 89.4363-3.36178Z"/>
  </g>
  <g id="Medium-L" transform="matrix(1 0 0 1 1670.9 1556)">
   <path d="M75.6279 29.11Q88.9106 29.11 100.546 24.0981Q112.182 19.0862 121.078 10.1678Q129.973 1.24944 135.02-10.3864Q140.067-22.0223 140.067-35.2592Q140.067-48.4961 135.02-60.1319Q129.973-71.7678 121.055-80.6862Q112.137-89.6045 100.501-94.6164Q88.8648-99.6283 75.5822-99.6283Q62.3695-99.6283 50.7215-94.6164Q39.0736-89.6045 30.213-80.6862Q21.3525-71.7678 16.3056-60.1319Q11.2588-48.4961 11.2588-35.2592Q11.2588-22.0223 16.3056-10.3864Q21.3525 1.24944 30.2359 10.1678Q39.1193 19.0862 50.7673 24.0981Q62.4152 29.11 75.6279 29.11ZM41.2294-7.822L41.2294-52.545Q41.2294-54.2534 41.9404-55.4557Q42.6514-56.658 44.1297-57.5338L59.5405-66.4085Q60.1734-66.7475 60.7641-67.015Q61.3549-67.2826 61.8443-67.5002L61.8443-12.2156L47.8932-4.63791Q46.2331-3.77204 45.1186-3.77204Q43.38-3.77204 42.3047-4.81238Q41.2294-5.85272 41.2294-7.822ZM66.2065-12.8567L66.2065-67.7895Q66.822-67.7097 67.4283-67.423Q68.0346-67.1363 68.6748-66.7867L84.3835-57.2519L84.3835-2.84507Q83.9146-2.93601 83.4232-3.11077Q82.9317-3.28553 82.344-3.61402ZM88.8157-2.98119L88.8157-58.1058L102.924-65.8731Q104.423-66.7353 105.814-66.7353Q107.661-66.7353 108.751-65.7475Q109.84-64.7597 109.84-62.7453L109.84-18.1101Q109.84-14.795 106.912-13.1244L90.0228-3.4762Q89.4369-3.14458 88.8157-2.98119Z"/>
  </g>
  <g id="Regular-L" transform="matrix(1 0 0 1 1374.99 1556)">
   <path d="M74.8194 28.2909Q87.9312 28.2909 99.4198 23.3434Q110.908 18.3959 119.697 9.58221Q128.485 0.768476 133.473-10.7201Q138.46-22.2086 138.46-35.2697Q138.46-48.3308 133.473-59.8193Q128.485-71.3079 119.671-80.1216Q110.858-88.9353 99.3691-93.8828Q87.8805-98.8303 74.7687-98.8303Q61.7374-98.8303 50.234-93.8828Q38.7306-88.9353 29.9824-80.1216Q21.2342-71.3079 16.2465-59.8193Q11.2588-48.3308 11.2588-35.2697Q11.2588-22.2086 16.2465-10.7201Q21.2342 0.768476 30.0077 9.58221Q38.7813 18.3959 50.2847 23.3434Q61.7881 28.2909 74.8194 28.2909ZM40.0227-7.10514L40.0227-52.9168Q40.0227-54.5077 40.6826-55.6071Q41.3425-56.7066 42.713-57.523L58.9633-66.9552Q59.4756-67.2261 59.9878-67.4674Q60.5001-67.7087 60.9319-67.9411L60.9319-12.3542L46.1007-4.28374Q44.4383-3.44645 43.5206-3.44645Q41.8967-3.44645 40.9597-4.40877Q40.0227-5.37108 40.0227-7.10514ZM65.0853-12.8225L65.0853-68.3168Q65.6482-68.2574 66.15-68.0414Q66.6518-67.8255 67.1343-67.5545L83.7724-57.3797L83.7724-2.3746Q83.4507-2.45502 83.0486-2.59052Q82.6465-2.72602 82.164-2.99702ZM88.0062-2.48476L88.0062-57.8568L103.306-66.2854Q104.676-67.072 105.886-67.072Q107.539-67.072 108.462-66.1752Q109.384-65.2785 109.384-63.5147L109.384-17.6226Q109.384-14.5775 106.723-13.0462L89.1585-2.95513Q88.6077-2.6544 88.0062-2.48476Z"/>
  </g>
  <g id="Light-L" transform="matrix(1 0 0 1 1079.2 1556)">
   <path d="M73.8959 27.3674Q86.8436 27.3674 98.1577 22.502Q109.472 17.6366 118.137 8.95629Q126.802 0.275949 131.708-11.0381Q136.614-22.3522 136.614-35.2697Q136.614-48.1872 131.708-59.5013Q126.802-70.8154 118.122-79.4957Q109.442-88.176 98.1275-93.0414Q86.8134-97.9069 73.8658-97.9069Q60.9986-97.9069 49.6594-93.0414Q38.3201-88.176 29.6951-79.4957Q21.07-70.8154 16.1644-59.5013Q11.2588-48.1872 11.2588-35.2697Q11.2588-22.3522 16.1644-11.0381Q21.07 0.275949 29.7102 8.95629Q38.3503 17.6366 49.6895 22.502Q61.0287 27.3674 73.8959 27.3674ZM39.838-6.98201L39.838-53.1631Q39.838-54.6308 40.4261-55.5456Q41.0142-56.4604 42.2205-57.1741L58.6965-66.9552Q59.2293-67.2467 59.7621-67.4879Q60.2949-67.7292 60.7472-67.9001L60.7472-13.134L45.1157-4.48896Q43.6379-3.79532 42.8639-3.79532Q41.5068-3.79532 40.6724-4.64477Q39.838-5.49421 39.838-6.98201ZM64.326-13.315L64.326-68.0911Q64.8889-67.9906 65.4317-67.7644Q65.9746-67.5382 66.4571-67.2467L83.0336-57.154L83.0336-2.53878Q82.712-2.6192 82.3099-2.76496Q81.9078-2.91072 81.4252-3.20224ZM86.6928-2.66946L86.6928-57.4053L102.505-66.1007Q103.712-66.7642 104.757-66.7642Q106.164-66.7642 106.974-65.97Q107.783-65.1759 107.783-63.6378L107.783-17.3763Q107.783-14.7827 105.451-13.4156L88.0298-3.24244Q87.3764-2.90066 86.6928-2.66946Z"/>
  </g>
  <g id="Thin-L" transform="matrix(1 0 0 1 783.716 1556)">
   <path d="M72.6746 26.1461Q85.405 26.1461 96.4884 21.3892Q107.572 16.6324 116.074 8.12846Q124.577-0.375458 129.374-11.4588Q134.171-22.5422 134.171-35.2697Q134.171-47.9972 129.374-59.0806Q124.577-70.1639 116.073-78.6679Q107.569-87.1718 96.4854-91.9286Q85.402-96.6855 72.6715-96.6855Q60.0215-96.6855 48.8994-91.9286Q37.7773-87.1718 29.3151-78.6679Q20.8529-70.1639 16.0558-59.0806Q11.2588-47.9972 11.2588-35.2697Q11.2588-22.5422 16.0558-11.4588Q20.8529-0.375458 29.3166 8.12846Q37.7803 16.6324 48.9024 21.3892Q60.0245 26.1461 72.6746 26.1461ZM39.5938-6.81915L39.5938-53.4888Q39.5938-54.7936 40.0868-55.4642Q40.5799-56.1347 41.5691-56.7127L58.3437-66.9552Q58.9036-67.2738 59.4635-67.5151Q60.0234-67.7563 60.5029-67.8458L60.5029-14.1654L43.8129-4.76038Q42.5794-4.25674 41.9953-4.25674Q40.9911-4.25674 40.2924-4.9569Q39.5938-5.65707 39.5938-6.81915ZM63.3217-13.9664L63.3217-67.7925Q63.8846-67.6377 64.4818-67.398Q65.0789-67.1582 65.5614-66.8396L82.0565-56.8554L82.0565-2.75591Q81.7348-2.83633 81.3327-2.99567Q80.9306-3.155 80.4481-3.47366ZM84.9557-2.91374L84.9557-56.8082L101.447-65.8564Q102.436-66.3571 103.264-66.3571Q104.346-66.3571 105.006-65.6986Q105.666-65.0402 105.666-63.8007L105.666-17.0506Q105.666-15.0541 103.768-13.9041L86.537-3.62243Q85.7478-3.22636 84.9557-2.91374Z"/>
  </g>
  <g id="Ultralight-L" transform="matrix(1 0 0 1 487.631 1556)">
   <path d="M72.049 25.5205Q84.6682 25.5205 95.6335 20.8192Q106.599 16.118 115.018 7.70445Q123.437-0.709105 128.178-11.6743Q132.92-22.6395 132.92-35.2697Q132.92-47.8999 128.178-58.8651Q123.437-69.8303 115.023-78.2439Q106.61-86.6574 95.6443-91.3586Q84.6791-96.0599 72.0598-96.0599Q59.521-96.0599 48.5101-91.3586Q37.4993-86.6574 29.1205-78.2439Q20.7417-69.8303 16.0002-58.8651Q11.2588-47.8999 11.2588-35.2697Q11.2588-22.6395 16.0002-11.6743Q20.7417-0.709105 29.115 7.70445Q37.4884 16.118 48.4992 20.8192Q59.5101 25.5205 72.049 25.5205ZM39.4686-6.73574L39.4686-53.6556Q39.4686-54.8771 39.9131-55.4224Q40.3575-55.9678 41.2355-56.4764L58.1629-66.9552Q58.7368-67.2877 59.3106-67.529Q59.8844-67.7702 60.3778-67.818L60.3778-14.6937L43.1456-4.8994Q42.0372-4.49307 41.5505-4.49307Q40.7269-4.49307 40.0978-5.11677Q39.4686-5.74048 39.4686-6.73574ZM62.8073-14.3001L62.8073-67.6396Q63.3703-67.457 63.9952-67.2103Q64.6201-66.9636 65.1026-66.631L81.5561-56.7025L81.5561-2.86713Q81.2344-2.94755 80.8323-3.11383Q80.4302-3.28011 79.9477-3.61268ZM84.066-3.03885L84.066-56.5024L100.905-65.7313Q101.783-66.1485 102.5-66.1485Q103.415-66.1485 103.998-65.5596Q104.582-64.9707 104.582-63.8841L104.582-16.8838Q104.582-15.1931 102.906-14.1543L85.7723-3.81706Q84.9137-3.39319 84.066-3.03885Z"/>
  </g>
  <g id="Black-M" transform="matrix(1 0 0 1 2871.36 1126)">
   <path d="M62.0423 18.1161Q73.0725 18.1161 82.714 13.9613Q92.3555 9.80654 99.704 2.45531Q107.052-4.89592 111.21-14.5374Q115.367-24.1789 115.367-35.2035Q115.367-46.2282 111.21-55.8697Q107.052-65.5112 99.7012-72.8624Q92.35-80.2136 82.7085-84.3684Q73.067-88.5232 62.0368-88.5232Q51.0119-88.5232 41.3705-84.3684Q31.7292-80.2136 24.3833-72.8624Q17.0375-65.5112 12.8801-55.8697Q8.72266-46.2282 8.72266-35.2035Q8.72266-24.1789 12.8801-14.5374Q17.0375-4.89592 24.3861 2.45531Q31.7347 9.80654 41.376 13.9613Q51.0174 18.1161 62.0423 18.1161ZM37.498-17.2917L37.498-46.9967Q37.498-48.826 38.2622-50.1734Q39.0265-51.5208 40.6176-52.4413L48.7254-56.8397Q49.7841-57.426 50.6144-57.7556Q51.4447-58.0853 52.0985-58.1641L52.0985-17.0197L45.1157-13.2478Q43.9031-12.4928 42.1722-12.4928Q40.3823-12.4928 38.9401-13.6237Q37.498-14.7546 37.498-17.2917ZM56.2554-18.2231L56.2554-57.923Q56.977-57.7524 57.9471-57.1971Q58.9173-56.6418 60.1475-55.9984L67.9692-51.6193L67.9692-12.3864Q66.9206-12.5058 66.1238-12.8275Q65.3269-13.1492 64.3821-13.6784ZM72.1313-12.6197L72.1313-53.9586L77.6912-56.9877Q79.3965-57.9655 81.2626-57.9655Q83.5091-57.9655 85.0941-56.8115Q86.6791-55.6574 86.6791-53.0064L86.6791-24.1526Q86.6791-20.4806 83.2738-18.5936L73.3848-13.1529Q72.7323-12.7382 72.1313-12.6197Z"/>
  </g>
  <g id="Heavy-M" transform="matrix(1 0 0 1 2575.48 1126)">
   <path d="M61.2045 17.2648Q72.0509 17.2648 81.541 13.1749Q91.0312 9.08498 98.2688 1.83921Q105.506-5.40657 109.606-14.8967Q113.705-24.3868 113.705-35.217Q113.705-46.0473 109.606-55.5374Q105.506-65.0275 98.2607-72.2733Q91.0149-79.519 81.5248-83.6089Q72.0347-87.6988 61.1882-87.6988Q50.3604-87.6988 40.8691-83.6089Q31.3778-79.519 24.1495-72.2733Q16.9211-65.0275 12.8219-55.5374Q8.72266-46.0473 8.72266-35.217Q8.72266-24.3868 12.8219-14.8967Q16.9211-5.40657 24.1576 1.83921Q31.394 9.08498 40.8853 13.1749Q50.3767 17.2648 61.2045 17.2648ZM35.991-16.3993L35.991-47.4205Q35.991-49.1255 36.7052-50.3808Q37.4194-51.636 38.9077-52.5023L48.0429-57.5404Q48.9426-58.0351 49.6679-58.331Q50.3931-58.627 50.9688-58.738L50.9688-17.0298L43.0298-12.7498Q41.7746-12.0006 40.2652-12.0006Q38.5649-12.0006 37.2779-13.0557Q35.991-14.1108 35.991-16.3993ZM54.9814-18.0735L54.9814-58.6474Q55.6356-58.5116 56.463-58.0493Q57.2904-57.587 58.3186-57.0486L67.3447-51.8316L67.3447-11.7481Q66.4847-11.8541 65.8024-12.1232Q65.1201-12.3924 64.3101-12.8435ZM71.3759-11.9437L71.3759-53.7364L78.352-57.5558Q79.9275-58.4633 81.5965-58.4633Q83.6483-58.4633 85.043-57.4038Q86.4377-56.3444 86.4377-53.9661L86.4377-23.5807Q86.4377-20.1577 83.3054-18.414L72.5195-12.4233Q71.934-12.057 71.3759-11.9437Z"/>
  </g>
  <g id="Bold-M" transform="matrix(1 0 0 1 2279.69 1126)">
   <path d="M60.2672 16.3124Q70.9082 16.3124 80.2289 12.2951Q89.5497 8.27781 96.6634 1.15Q103.777-5.9778 107.811-15.2986Q111.845-24.6193 111.845-35.2321Q111.845-45.8449 107.811-55.1656Q103.777-64.4864 96.6493-71.6142Q89.5215-78.742 80.2007-82.7593Q70.8799-86.7766 60.2389-86.7766Q49.6317-86.7766 40.3082-82.7593Q30.9846-78.742 23.8878-71.6142Q16.791-64.4864 12.7568-55.1656Q8.72266-45.8449 8.72266-35.2321Q8.72266-24.6193 12.7568-15.2986Q16.791-5.9778 23.902 1.15Q31.0129 8.27781 40.3364 12.2951Q49.6599 16.3124 60.2672 16.3124ZM34.3053-15.4011L34.3053-47.8945Q34.3053-49.4605 34.9635-50.6127Q35.6217-51.7649 36.9949-52.5706L47.2794-58.3242Q48.0013-58.7165 48.6091-58.9747Q49.2168-59.233 49.7051-59.38L49.7051-17.0412L40.6966-12.1927Q39.3937-11.4499 38.1318-11.4499Q36.5318-11.4499 35.4185-12.4203Q34.3053-13.3907 34.3053-15.4011ZM53.5562-17.9062L53.5562-59.4577Q54.1351-59.361 54.8028-59.0026Q55.4706-58.6443 56.2726-58.2234L66.6461-52.0691L66.6461-11.0341Q65.9972-11.125 65.443-11.3354Q64.8888-11.5458 64.2295-11.9095ZM70.5309-11.1876L70.5309-53.4878L79.0912-58.1914Q80.5216-59.0201 81.97-59.0201Q83.804-59.0201 84.9858-58.0664Q86.1677-57.1128 86.1677-55.0397L86.1677-22.9408Q86.1677-19.7966 83.3408-18.2131L71.5514-11.6072Q71.041-11.295 70.5309-11.1876Z"/>
  </g>
  <g id="Semibold-M" transform="matrix(1 0 0 1 1983.62 1126)">
   <path d="M59.621 15.6559Q70.1203 15.6559 79.3244 11.6886Q88.5284 7.72135 95.5566 0.674869Q102.585-6.37161 106.574-15.5756Q110.564-24.7797 110.564-35.2425Q110.564-45.7053 106.574-54.9093Q102.585-64.1134 95.5384-71.1598Q88.4919-78.2063 79.2879-82.1736Q70.0838-86.1408 59.5845-86.1408Q49.1293-86.1408 39.9215-82.1736Q30.7136-78.2063 23.7075-71.1598Q16.7013-64.1134 12.712-54.9093Q8.72266-45.7053 8.72266-35.2425Q8.72266-24.7797 12.712-15.5756Q16.7013-6.37161 23.7257 0.674869Q30.7501 7.72135 39.958 11.6886Q49.1658 15.6559 59.621 15.6559ZM33.1431-14.713L33.1431-48.2213Q33.1431-49.6914 33.7627-50.7726Q34.3824-51.8538 35.6763-52.6177L46.753-58.8645Q47.3524-59.1862 47.8791-59.4185Q48.4058-59.6508 48.8339-59.8226L48.8339-17.049L39.088-11.8086Q37.7523-11.0703 36.6611-11.0703Q35.1302-11.0703 34.1367-11.9823Q33.1431-12.8942 33.1431-14.713ZM52.5737-17.7908L52.5737-60.0163Q53.1006-59.9465 53.6583-59.6598Q54.216-59.3732 54.8621-59.0334L66.1645-52.2328L66.1645-10.5419Q65.6611-10.6224 65.1952-10.7923Q64.7294-10.9622 64.174-11.2657ZM69.9484-10.6663L69.9484-53.3165L79.6009-58.6295Q80.9311-59.4039 82.2275-59.4039Q83.9113-59.4039 84.9464-58.5233Q85.9815-57.6426 85.9815-55.7799L85.9815-22.4997Q85.9815-19.5476 83.3653-18.0746L70.8841-11.0445Q70.4254-10.7697 69.9484-10.6663Z"/>
  </g>
  <g id="Medium-M" transform="matrix(1 0 0 1 1687.4 1126)">
   <path d="M59.1311 15.158Q69.523 15.158 78.6385 11.2287Q87.754 7.29942 94.7174 0.314603Q101.681-6.67021 105.636-15.7857Q109.591-24.9012 109.591-35.2504Q109.591-45.5995 105.636-54.715Q101.681-63.8305 94.696-70.8153Q87.7112-77.8002 78.5957-81.7295Q69.4802-85.6588 59.0883-85.6588Q48.7484-85.6588 39.6283-81.7295Q30.5081-77.8002 23.5707-70.8153Q16.6333-63.8305 12.678-54.715Q8.72266-45.5995 8.72266-35.2504Q8.72266-24.9012 12.678-15.7857Q16.6333-6.67021 23.5921 0.314603Q30.5509 7.29942 39.671 11.2287Q48.7912 15.158 59.1311 15.158ZM32.2619-14.1912L32.2619-48.4691Q32.2619-49.8665 32.8523-50.8939Q33.4426-51.9212 34.6764-52.6534L46.3539-59.2743Q46.8603-59.5424 47.3256-59.755Q47.7909-59.9676 48.1734-60.1582L48.1734-17.0549L37.8684-11.5174Q36.5077-10.7825 35.546-10.7825Q34.0675-10.7825 33.1647-11.6501Q32.2619-12.5178 32.2619-14.1912ZM51.8287-17.7033L51.8287-60.4398Q52.3162-60.3905 52.7904-60.1582Q53.2647-59.9258 53.7927-59.6475L65.7993-52.3569L65.7993-10.1687Q65.4062-10.2413 65.0073-10.3805Q64.6085-10.5197 64.1319-10.7775ZM69.5067-10.2711L69.5067-53.1866L79.9873-58.9617Q81.2416-59.695 82.4227-59.695Q83.9927-59.695 84.9165-58.8696Q85.8404-58.0442 85.8404-56.3411L85.8404-22.1653Q85.8404-19.3588 83.3838-17.9696L70.378-10.6179Q69.9586-10.3714 69.5067-10.2711Z"/>
  </g>
  <g id="Regular-M" transform="matrix(1 0 0 1 1391.32 1126)">
   <path d="M58.492 14.5087Q68.7438 14.5087 77.7439 10.6289Q86.7439 6.74907 93.6228-0.155309Q100.502-7.05969 104.413-16.0597Q108.324-25.0598 108.324-35.2606Q108.324-45.4615 104.413-54.4616Q100.502-63.4616 93.5973-70.366Q86.693-77.2704 77.6929-81.1502Q68.6929-85.03 58.441-85.03Q48.2515-85.03 39.2458-81.1502Q30.2401-77.2704 23.3923-70.366Q16.5446-63.4616 12.6336-54.4616Q8.72266-45.4615 8.72266-35.2606Q8.72266-25.0598 12.6336-16.0597Q16.5446-7.05969 23.4178-0.155309Q30.291 6.74907 39.2968 10.6289Q48.3025 14.5087 58.492 14.5087ZM31.1125-13.5105L31.1125-48.7923Q31.1125-50.0949 31.6647-51.052Q32.2169-52.0091 33.3722-52.7L45.8334-59.8087Q46.2185-60.007 46.6037-60.1939Q46.9889-60.3808 47.3118-60.596L47.3118-17.0627L36.2775-11.1376Q34.8843-10.407 34.0914-10.407Q32.6813-10.407 31.8969-11.2169Q31.1125-12.0268 31.1125-13.5105ZM50.857-17.5892L50.857-60.9923Q51.2931-60.9696 51.6585-60.8082Q52.0238-60.6467 52.3977-60.4485L65.323-52.5189L65.323-9.68188Q65.0738-9.74418 64.7623-9.84331Q64.4507-9.94244 64.0769-10.1407ZM68.9305-9.75553L68.9305-53.0171L80.4913-59.3951Q81.6467-60.0746 82.6774-60.0746Q84.0988-60.0746 84.8776-59.3214Q85.6563-58.5682 85.6563-57.0731L85.6563-21.729Q85.6563-19.1126 83.4079-17.8326L69.718-10.0615Q69.3498-9.85187 68.9305-9.75553Z"/>
  </g>
  <g id="Light-M" transform="matrix(1 0 0 1 1095.44 1126)">
   <path d="M57.664 13.6807Q67.7687 13.6807 76.6123 9.87453Q85.456 6.06831 92.2245-0.716478Q98.993-7.50127 102.83-16.3449Q106.668-25.1886 106.668-35.2606Q106.668-45.3327 102.83-54.1764Q98.993-63.02 92.2082-69.8048Q85.4234-76.5896 76.5798-80.3958Q67.7361-84.202 57.6315-84.202Q47.5892-84.202 38.7306-80.3958Q29.8721-76.5896 23.1348-69.8048Q16.3974-63.02 12.56-54.1764Q8.72266-45.3327 8.72266-35.2606Q8.72266-25.1886 12.56-16.3449Q16.3974-7.50127 23.151-0.716478Q29.9047 6.06831 38.7632 9.87453Q47.6217 13.6807 57.664 13.6807ZM30.9469-13.4001L30.9469-49.0131Q30.9469-50.2053 31.4347-50.9968Q31.9225-51.7883 32.9307-52.3872L45.5942-59.8087Q45.9978-60.0253 46.4013-60.2123Q46.8049-60.3992 47.1462-60.5592L47.1462-17.7618L35.3943-11.3216Q34.1667-10.7198 33.5027-10.7198Q32.3317-10.7198 31.6393-11.4285Q30.9469-12.1372 30.9469-13.4001ZM50.1762-18.0308L50.1762-60.7899Q50.6124-60.7304 51.0145-60.5598Q51.4167-60.3891 51.7905-60.1725L64.6607-52.3165L64.6607-9.82907Q64.4114-9.89137 64.0999-9.9997Q63.7884-10.108 63.4146-10.3247ZM67.753-9.92112L67.753-52.6123L79.7738-59.2295Q80.7819-59.7987 81.6654-59.7987Q82.8661-59.7987 83.5436-59.1374Q84.2212-58.4762 84.2212-57.1834L84.2212-21.5082Q84.2212-19.2966 82.2672-18.1638L68.7061-10.3191Q68.2458-10.0727 67.753-9.92112Z"/>
  </g>
  <g id="Thin-M" transform="matrix(1 0 0 1 799.828 1126)">
   <path d="M56.569 12.5857Q66.479 12.5857 75.1158 8.87683Q83.7526 5.16794 90.3751-1.45867Q96.9976-8.08529 100.738-16.7221Q104.478-25.3589 104.478-35.2606Q104.478-45.1624 100.738-53.7992Q96.9976-62.436 90.371-69.0626Q83.7444-75.6892 75.1076-79.3981Q66.4707-83.107 56.5608-83.107Q46.7131-83.107 38.0493-79.3981Q29.3854-75.6892 22.7941-69.0626Q16.2027-62.436 12.4627-53.7992Q8.72266-45.1624 8.72266-35.2606Q8.72266-25.3589 12.4627-16.7221Q16.2027-8.08529 22.7982-1.45867Q29.3936 5.16794 38.0575 8.87683Q46.7214 12.5857 56.569 12.5857ZM30.7279-13.2541L30.7279-49.3051Q30.7279-50.3513 31.1306-50.9238Q31.5332-51.4963 32.3466-51.9735L45.2778-59.8087Q45.7057-60.0497 46.1337-60.2366Q46.5616-60.4235 46.9272-60.5105L46.9272-18.6865L34.2263-11.5649Q33.2177-11.1335 32.724-11.1335Q31.8694-11.1335 31.2987-11.7083Q30.7279-12.2832 30.7279-13.2541ZM49.2759-18.6148L49.2759-60.5222Q49.712-60.4141 50.1628-60.2313Q50.6137-60.0485 50.9875-59.8075L63.7846-52.0488L63.7846-10.0237Q63.5354-10.086 63.2239-10.2065Q62.9124-10.327 62.5385-10.568ZM66.1956-10.1401L66.1956-52.077L78.8247-59.0105Q79.6382-59.4336 80.3271-59.4336Q81.2357-59.4336 81.7794-58.8941Q82.3231-58.3545 82.3231-57.3295L82.3231-21.2162Q82.3231-19.5399 80.7585-18.6018L67.3677-10.6597Q66.7858-10.3647 66.1956-10.1401Z"/>
  </g>
  <g id="Ultralight-M" transform="matrix(1 0 0 1 503.679 1126)">
   <path d="M56.0081 12.0248Q65.8184 12.0248 74.3492 8.36581Q82.8801 4.70678 89.4278-1.83882Q95.9756-8.38442 99.6657-16.9153Q103.356-25.4462 103.356-35.2606Q103.356-45.0751 99.6657-53.606Q95.9756-62.1369 89.43-68.6825Q82.8844-75.2281 74.3535-78.8871Q65.8226-82.5461 56.0124-82.5461Q46.2644-82.5461 37.7003-78.8871Q29.1361-75.2281 22.6196-68.6825Q16.103-62.1369 12.4128-53.606Q8.72266-45.0751 8.72266-35.2606Q8.72266-25.4462 12.4128-16.9153Q16.103-8.38442 22.6175-1.83882Q29.1319 4.70678 37.6961 8.36581Q46.2602 12.0248 56.0081 12.0248ZM30.6158-13.1794L30.6158-49.4547Q30.6158-50.4261 30.9748-50.8864Q31.3338-51.3467 32.0475-51.7617L45.1158-59.8087Q45.5562-60.0621 45.9966-60.2491Q46.4369-60.436 46.815-60.4856L46.815-19.1602L33.628-11.6895Q32.7316-11.3454 32.3251-11.3454Q31.6326-11.3454 31.1242-11.8517Q30.6158-12.3579 30.6158-13.1794ZM48.8147-18.9139L48.8147-60.3851Q49.2508-60.252 49.7266-60.063Q50.2023-59.874 50.5762-59.6205L63.3359-51.9117L63.3359-10.1235Q63.0867-10.1858 62.7752-10.3125Q62.4637-10.4392 62.0898-10.6927ZM65.3979-10.2523L65.3979-51.8028L78.3386-58.8983Q79.0524-59.2467 79.6415-59.2467Q80.4007-59.2467 80.8758-58.7694Q81.3509-58.2922 81.3509-57.4042L81.3509-21.0666Q81.3509-19.6645 79.9857-18.8262L66.6822-10.8342Q66.0379-10.5142 65.3979-10.2523Z"/>
  </g>
  <g id="Black-S" transform="matrix(1 0 0 1 2884.57 696)">
   <path d="M48.8281 6.78711Q57.5195 6.78711 65.1123 3.51562Q72.7051 0.244141 78.4912-5.54199Q84.2773-11.3281 87.5488-18.9209Q90.8203-26.5137 90.8203-35.2051Q90.8203-43.8965 87.5488-51.4893Q84.2773-59.082 78.4912-64.8682Q72.7051-70.6543 65.1123-73.9258Q57.5195-77.1973 48.8281-77.1973Q40.1367-77.1973 32.5439-73.9258Q24.9512-70.6543 19.165-64.8682Q13.3789-59.082 10.1074-51.4893Q6.83594-43.8965 6.83594-35.2051Q6.83594-26.5137 10.1074-18.9209Q13.3789-11.3281 19.165-5.54199Q24.9512 0.244141 32.5439 3.51562Q40.1367 6.78711 48.8281 6.78711ZM29.834-21.4355L29.834-44.3359Q29.834-45.8008 30.4443-46.875Q31.0547-47.9492 32.3242-48.6816L38.3789-51.9531Q39.2578-52.4414 39.9414-52.71Q40.625-52.9785 41.1621-53.0273L41.1621-20.9961L35.9375-18.1641Q35.0098-17.5781 33.5938-17.5781Q32.1777-17.5781 31.0059-18.4814Q29.834-19.3848 29.834-21.4355ZM44.4336-21.9727L44.4336-52.7832Q45.0195-52.6367 45.8252-52.1729Q46.6309-51.709 47.6562-51.1719L53.418-47.998L53.418-17.5293Q52.5391-17.627 51.8799-17.8955Q51.2207-18.1641 50.4395-18.6035ZM56.6895-17.7246L56.6895-49.9512L60.6445-52.0996Q62.0117-52.8809 63.5254-52.8809Q65.332-52.8809 66.626-51.9531Q67.9199-51.0254 67.9199-48.877L67.9199-26.709Q67.9199-23.7793 65.1855-22.2656L57.7148-18.1641Q57.1777-17.8223 56.6895-17.7246Z"/>
  </g>
  <g id="Heavy-S" transform="matrix(1 0 0 1 2588.47 696)">
   <path d="M48.2173 6.16479Q56.7704 6.16479 64.2537 2.9394Q71.737-0.285985 77.4425-5.99721Q83.1479-11.7084 86.3791-19.1917Q89.6102-26.675 89.6102-35.2166Q89.6102-43.7582 86.3791-51.2415Q83.1479-58.7248 77.4367-64.436Q71.7255-70.1472 64.2422-73.3726Q56.7589-76.598 48.2058-76.598Q39.6642-76.598 32.1809-73.3726Q24.6976-70.1472 18.9979-64.436Q13.2982-58.7248 10.0671-51.2415Q6.83594-43.7582 6.83594-35.2166Q6.83594-26.675 10.0671-19.1917Q13.2982-11.7084 19.0037-5.99721Q24.7092-0.285985 32.1924 2.9394Q39.6757 6.16479 48.2173 6.16479ZM28.5663-20.6865L28.5663-44.6701Q28.5663-46.0428 29.1421-47.0594Q29.7178-48.076 30.9182-48.7738L37.8257-52.5524Q38.5663-52.96 39.1577-53.1998Q39.7491-53.4395 40.2171-53.5229L40.2171-20.9154L34.2665-17.7146Q33.2811-17.1171 32.0379-17.1171Q30.668-17.1171 29.6172-17.9686Q28.5663-18.8201 28.5663-20.6865ZM43.431-21.7883L43.431-53.4286Q43.9593-53.3167 44.6382-52.9335Q45.3171-52.5503 46.1696-52.1054L52.9685-48.2055L52.9685-16.9646Q52.251-17.0507 51.6897-17.2732Q51.1285-17.4956 50.4625-17.8659ZM56.1939-17.1253L56.1939-49.8129L61.3014-52.6067Q62.5764-53.3418 63.9403-53.3418Q65.6086-53.3418 66.7527-52.4833Q67.8969-51.6247 67.8969-49.6837L67.8969-26.248Q67.8969-23.4797 65.3584-22.0697L57.104-17.5072Q56.6361-17.2115 56.1939-17.1253Z"/>
  </g>
  <g id="Bold-S" transform="matrix(1 0 0 1 2292.43 696)">
   <path d="M47.5342 5.46875Q55.9326 5.46875 63.2935 2.29492Q70.6543-0.878906 76.2695-6.50635Q81.8848-12.1338 85.0708-19.4946Q88.2568-26.8555 88.2568-35.2295Q88.2568-43.6035 85.0708-50.9644Q81.8848-58.3252 76.2573-63.9526Q70.6299-69.5801 63.269-72.7539Q55.9082-75.9277 47.5098-75.9277Q39.1357-75.9277 31.7749-72.7539Q24.4141-69.5801 18.811-63.9526Q13.208-58.3252 10.022-50.9644Q6.83594-43.6035 6.83594-35.2295Q6.83594-26.8555 10.022-19.4946Q13.208-12.1338 18.8232-6.50635Q24.4385-0.878906 31.7993 2.29492Q39.1602 5.46875 47.5342 5.46875ZM27.1484-19.8486L27.1484-45.0439Q27.1484-46.3135 27.6855-47.2656Q28.2227-48.2178 29.3457-48.877L37.207-53.2227Q37.793-53.54 38.2812-53.7476Q38.7695-53.9551 39.1602-54.0771L39.1602-20.8252L32.3975-17.2119Q31.3477-16.6016 30.2979-16.6016Q28.9795-16.6016 28.064-17.395Q27.1484-18.1885 27.1484-19.8486ZM42.3096-21.582L42.3096-54.1504Q42.7734-54.0771 43.3105-53.7842Q43.8477-53.4912 44.5068-53.1494L52.4658-48.4375L52.4658-16.333Q51.9287-16.4062 51.4771-16.5771Q51.0254-16.748 50.4883-17.041ZM55.6396-16.4551L55.6396-49.6582L62.0361-53.1738Q63.208-53.8574 64.4043-53.8574Q65.918-53.8574 66.8945-53.0762Q67.8711-52.2949 67.8711-50.5859L67.8711-25.7324Q67.8711-23.1445 65.5518-21.8506L56.4209-16.7725Q56.0303-16.5283 55.6396-16.4551Z"/>
  </g>
  <g id="Semibold-S" transform="matrix(1 0 0 1 1996.19 696)">
   <path d="M47.0632 4.98887Q55.355 4.98887 62.6314 1.85059Q69.9078-1.2877 75.4608-6.85737Q81.0139-12.4271 84.1688-19.7035Q87.3237-26.9799 87.3237-35.2384Q87.3237-43.4969 84.1688-50.7733Q81.0139-58.0497 75.4442-63.6194Q69.8745-69.1891 62.5981-72.3273Q55.3217-75.4656 47.0299-75.4656Q38.7714-75.4656 31.495-72.3273Q24.2186-69.1891 18.6822-63.6194Q13.1458-58.0497 9.99087-50.7733Q6.83594-43.4969 6.83594-35.2384Q6.83594-26.9799 9.99087-19.7035Q13.1458-12.4271 18.6988-6.85737Q24.2519-1.2877 31.5283 1.85059Q38.8047 4.98887 47.0632 4.98887ZM26.1709-19.271L26.1709-45.3017Q26.1709-46.5001 26.6813-47.4078Q27.1918-48.3155 28.2615-48.948L36.7805-53.6848Q37.2598-53.9399 37.677-54.1252Q38.0941-54.3105 38.4314-54.4593L38.4314-20.763L31.1089-16.8653Q30.0146-16.2461 29.0981-16.2461Q27.8153-16.2461 26.9931-16.9996Q26.1709-17.753 26.1709-19.271ZM41.5364-21.4398L41.5364-54.648Q41.9559-54.6015 42.3952-54.3707Q42.8346-54.1399 43.3604-53.8692L52.1192-48.5975L52.1192-15.8976Q51.7065-15.9619 51.3304-16.0973Q50.9543-16.2326 50.5061-16.4723ZM55.2575-15.993L55.2575-49.5516L62.5427-53.5648Q63.6435-54.2129 64.7242-54.2129Q66.1312-54.2129 66.9923-53.485Q67.8533-52.757 67.8533-51.208L67.8533-25.377Q67.8533-22.9135 65.6851-21.6995L55.9499-16.2659Q55.6126-16.0573 55.2575-15.993Z"/>
  </g>
  <g id="Medium-S" transform="matrix(1 0 0 1 1699.83 696)">
   <path d="M46.7061 4.625Q54.917 4.625 62.1294 1.51367Q69.3418-1.59766 74.8477-7.12354Q80.3535-12.6494 83.4849-19.8618Q86.6162-27.0742 86.6162-35.2451Q86.6162-43.416 83.4849-50.6284Q80.3535-57.8408 74.8276-63.3667Q69.3018-68.8926 62.0894-72.0039Q54.877-75.1152 46.666-75.1152Q38.4951-75.1152 31.2827-72.0039Q24.0703-68.8926 18.5845-63.3667Q13.0986-57.8408 9.96729-50.6284Q6.83594-43.416 6.83594-35.2451Q6.83594-27.0742 9.96729-19.8618Q13.0986-12.6494 18.6045-7.12354Q24.1104-1.59766 31.3228 1.51367Q38.5352 4.625 46.7061 4.625ZM25.4297-18.833L25.4297-45.4971Q25.4297-46.6416 25.9199-47.5156Q26.4102-48.3896 27.4395-49.002L36.457-54.0352Q36.8555-54.2432 37.2188-54.4116Q37.582-54.5801 37.8789-54.749L37.8789-20.7158L30.1318-16.6025Q29.0039-15.9766 28.1885-15.9766Q26.9326-15.9766 26.1812-16.6997Q25.4297-17.4229 25.4297-18.833ZM40.9502-21.332L40.9502-55.0254Q41.3359-54.999 41.7012-54.8154Q42.0664-54.6318 42.4912-54.415L51.8564-48.7188L51.8564-15.5674Q51.5381-15.625 51.2192-15.7334Q50.9004-15.8418 50.5195-16.041ZM54.9678-15.6426L54.9678-49.4707L62.9268-53.8613Q63.9736-54.4824 64.9668-54.4824Q66.293-54.4824 67.0664-53.7949Q67.8398-53.1074 67.8398-51.6797L67.8398-25.1074Q67.8398-22.7383 65.7861-21.585L55.5928-15.8818Q55.2959-15.7002 54.9678-15.6426Z"/>
  </g>
  <g id="Regular-S" transform="matrix(1 0 0 1 1403.58 696)">
   <path d="M46.2402 4.15039Q54.3457 4.15039 61.4746 1.07422Q68.6035-2.00195 74.0479-7.4707Q79.4922-12.9395 82.5928-20.0684Q85.6934-27.1973 85.6934-35.2539Q85.6934-43.3105 82.5928-50.4395Q79.4922-57.5684 74.0234-63.0371Q68.5547-68.5059 61.4258-71.582Q54.2969-74.6582 46.1914-74.6582Q38.1348-74.6582 31.0059-71.582Q23.877-68.5059 18.457-63.0371Q13.0371-57.5684 9.93652-50.4395Q6.83594-43.3105 6.83594-35.2539Q6.83594-27.1973 9.93652-20.0684Q13.0371-12.9395 18.4814-7.4707Q23.9258-2.00195 31.0547 1.07422Q38.1836 4.15039 46.2402 4.15039ZM24.4629-18.2617L24.4629-45.752Q24.4629-46.8262 24.9268-47.6562Q25.3906-48.4863 26.3672-49.0723L36.0352-54.4922Q36.3281-54.6387 36.6211-54.7852Q36.9141-54.9316 37.1582-55.127L37.1582-20.6543L28.8574-16.2598Q27.6855-15.625 27.002-15.625Q25.7812-15.625 25.1221-16.3086Q24.4629-16.9922 24.4629-18.2617ZM40.1855-21.1914L40.1855-55.5176Q40.5273-55.5176 40.7959-55.3955Q41.0645-55.2734 41.3574-55.127L51.5137-48.877L51.5137-15.1367Q51.3184-15.1855 51.0742-15.2588Q50.8301-15.332 50.5371-15.4785ZM54.5898-15.1855L54.5898-49.3652L63.4277-54.248Q64.4043-54.834 65.2832-54.834Q66.5039-54.834 67.1631-54.1992Q67.8223-53.5645 67.8223-52.2949L67.8223-24.7559Q67.8223-22.5098 65.918-21.4355L55.127-15.3809Q54.8828-15.2344 54.5898-15.1855Z"/>
  </g>
  <g id="Light-S" transform="matrix(1 0 0 1 1107.6 696)">
   <path d="M45.5078 3.41797Q53.4831 3.41797 60.4736 0.406901Q67.4642-2.60417 72.8109-7.96712Q78.1576-13.3301 81.193-20.3206Q84.2285-27.3112 84.2285-35.2539Q84.2285-43.1966 81.193-50.1872Q78.1576-57.1777 72.7946-62.5407Q67.4316-67.9036 60.4411-70.9147Q53.4505-73.9258 45.4753-73.9258Q37.5488-73.9258 30.5501-70.9147Q23.5514-67.9036 18.2292-62.5407Q12.9069-57.1777 9.87142-50.1872Q6.83594-43.1966 6.83594-35.2539Q6.83594-27.3112 9.87142-20.3206Q12.9069-13.3301 18.2454-7.96712Q23.584-2.60417 30.5827 0.406901Q37.5814 3.41797 45.5078 3.41797ZM24.3164-18.1641L24.3164-45.9473Q24.3164-46.9238 24.7233-47.6074Q25.1302-48.291 25.9766-48.7956L35.8236-54.4922Q36.1328-54.6549 36.4421-54.8014Q36.7513-54.9479 37.0117-55.0944L37.0117-21.2728L28.0762-16.4225Q27.0508-15.9017 26.4811-15.9017Q25.472-15.9017 24.8942-16.4958Q24.3164-17.0898 24.3164-18.1641ZM39.5833-21.582L39.5833-55.3385Q39.9251-55.306 40.2262-55.1758Q40.5273-55.0456 40.8203-54.8828L50.9277-48.6979L50.9277-15.2669Q50.7324-15.3158 50.4883-15.3971Q50.2441-15.4785 49.9512-15.6413ZM53.5482-15.332L53.5482-49.0072L62.793-54.1016Q63.6393-54.5898 64.388-54.5898Q65.4134-54.5898 65.9831-54.0365Q66.5527-53.4831 66.5527-52.3926L66.5527-24.5605Q66.5527-22.6725 64.9089-21.7285L54.2318-15.6087Q53.9062-15.4297 53.5482-15.332Z"/>
  </g>
  <g id="Thin-S" transform="matrix(1 0 0 1 811.863 696)">
   <path d="M44.5391 2.44928Q52.3422 2.44928 59.1498-0.47568Q65.9573-3.40064 71.1749-8.62368Q76.3924-13.8467 79.3418-20.6543Q82.2911-27.4619 82.2911-35.2539Q82.2911-43.0459 79.3418-49.8535Q76.3924-56.6611 71.1694-61.8841Q65.9463-67.1072 59.1387-70.0321Q52.3311-72.9571 44.5281-72.9571Q36.7739-72.9571 29.9474-70.0321Q23.1209-67.1072 17.9278-61.8841Q12.7347-56.6611 9.78531-49.8535Q6.83594-43.0459 6.83594-35.2539Q6.83594-27.4619 9.78531-20.6543Q12.7347-13.8467 17.9333-8.62368Q23.1319-3.40064 29.9584-0.47568Q36.7849 2.44928 44.5391 2.44928ZM24.1227-18.0349L24.1227-46.2056Q24.1227-47.053 24.4542-47.5428Q24.7858-48.0327 25.4599-48.4296L35.5437-54.4922Q35.8745-54.6765 36.2053-54.823Q36.536-54.9694 36.818-55.0513L36.818-22.0908L27.0429-16.6378Q26.2113-16.2676 25.7923-16.2676Q25.063-16.2676 24.5928-16.7433Q24.1227-17.219 24.1227-18.0349ZM38.7869-22.0987L38.7869-55.1018Q39.1287-55.0261 39.4728-54.8852Q39.817-54.7442 40.1099-54.5599L50.1528-48.4611L50.1528-15.4391Q49.9575-15.488 49.7133-15.5801Q49.4692-15.6723 49.1762-15.8565ZM52.1705-15.5258L52.1705-48.5336L61.9534-53.9078Q62.6276-54.2669 63.2041-54.2669Q63.9711-54.2669 64.4224-53.8212Q64.8737-53.3754 64.8737-52.5217L64.8737-24.3022Q64.8737-22.8878 63.5742-22.116L53.0478-15.9101Q52.6147-15.688 52.1705-15.5258Z"/>
  </g>
  <g id="Ultralight-S" transform="matrix(1 0 0 1 515.649 696)">
   <path d="M44.043 1.95312Q51.7578 1.95312 58.4717-0.927734Q65.1855-3.80859 70.3369-8.95996Q75.4883-14.1113 78.3936-20.8252Q81.2988-27.5391 81.2988-35.2539Q81.2988-42.9688 78.3936-49.6826Q75.4883-56.3965 70.3369-61.5479Q65.1855-66.6992 58.4717-69.5801Q51.7578-72.4609 44.043-72.4609Q36.377-72.4609 29.6387-69.5801Q22.9004-66.6992 17.7734-61.5479Q12.6465-56.3965 9.74121-49.6826Q6.83594-42.9688 6.83594-35.2539Q6.83594-27.5391 9.74121-20.8252Q12.6465-14.1113 17.7734-8.95996Q22.9004-3.80859 29.6387-0.927734Q36.377 1.95312 44.043 1.95312ZM24.0234-17.9688L24.0234-46.3379Q24.0234-47.1191 24.3164-47.5098Q24.6094-47.9004 25.1953-48.2422L35.4004-54.4922Q35.7422-54.6875 36.084-54.834Q36.4258-54.9805 36.7188-55.0293L36.7188-22.5098L26.5137-16.748Q25.7812-16.4551 25.4395-16.4551Q24.8535-16.4551 24.4385-16.8701Q24.0234-17.2852 24.0234-17.9688ZM38.3789-22.3633L38.3789-54.9805Q38.7207-54.8828 39.0869-54.7363Q39.4531-54.5898 39.7461-54.3945L49.7559-48.3398L49.7559-15.5273Q49.5605-15.5762 49.3164-15.6738Q49.0723-15.7715 48.7793-15.9668ZM51.4648-15.625L51.4648-48.291L61.5234-53.8086Q62.1094-54.1016 62.5977-54.1016Q63.2324-54.1016 63.623-53.7109Q64.0137-53.3203 64.0137-52.5879L64.0137-24.1699Q64.0137-22.998 62.8906-22.3145L52.4414-16.0645Q51.9531-15.8203 51.4648-15.625Z"/>
  </g>
 </g>
</svg>
